<svg id="Layer_1" data-name="Layer 1" xmlns="http://www.w3.org/2000/svg" viewBox="0 0 500 500"><defs><style>.cls-1{fill:#f9d841;}.cls-2{fill:#faac29;}.cls-3,.cls-5{fill:none;stroke-linecap:round;stroke-linejoin:round;stroke-width:20px;}.cls-3{stroke:#fff;}.cls-4{fill:#fff;}.cls-5{stroke:#000;}</style></defs><title>banana</title><path class="cls-1" d="M12.61,402S5,413.57,52.83,421,227.3,545.24,430.2,297c56.71-69.37,34.25-125.7,41.88-168.43s29.44-66.77,6.49-76.89-37.64-7.88-40.74,2,6.7,75.23-34.13,85.88c-56.51,14.74-127.62,160.19-301,218.25,0,0-37.39,15.06-64.35,16.88S8.79,393.92,12.61,402Z"/><path class="cls-2" d="M478.57,51.72c-9.44-4.17-17.4-6.14-23.82-6.44C453,58.59,443,77.83,438.27,104.16c-7.67,43,14.9,99.58-42.1,169.31C192.23,522.94,64.94,405.44,16.86,398c-1.95-.3-3.68-.62-5.45-.94a15.52,15.52,0,0,0,1.2,4.9S5,413.57,52.83,421,227.3,545.24,430.2,297c56.71-69.37,34.25-125.7,41.88-168.44S501.52,61.84,478.57,51.72Z"/><path class="cls-3" d="M131,381.83S206.86,365,265.38,307.19"/><circle class="cls-4" cx="289.76" cy="284.03" r="11.48"/><path class="cls-5" d="M12.61,402S5,413.57,52.83,421,227.3,545.24,430.2,297c56.71-69.37,34.25-125.7,41.88-168.43s29.44-66.77,6.49-76.89-37.64-7.88-40.74,2,6.7,75.23-34.13,85.88c-56.51,14.74-127.62,160.19-301,218.25,0,0-37.39,15.06-64.35,16.88S8.79,393.92,12.61,402Z"/></svg>